<svg xmlns="http://www.w3.org/2000/svg" viewBox="0 0 320 180" width="320" height="180"><rect width="320" height="180" fill="#fde2c8"/><path d="M22 58a10 10 0 0 1 14-12a14 14 0 0 1 26 4a9 9 0 0 1 0 18h-36a9 9 0 0 1-4-10z" fill="#fff" fill-opacity=".6"/><path d="M256 126a10 10 0 0 1 14-12a14 14 0 0 1 26 4a9 9 0 0 1 0 18h-36a9 9 0 0 1-4-10z" fill="#fff" fill-opacity=".6"/><circle cx="52" cy="132" r="10" fill="#f6c39a" fill-opacity=".6"/><circle cx="282" cy="52" r="9" fill="#f6c39a" fill-opacity=".6"/><path d="M18 104h44M258 88h44" stroke="#fff" stroke-opacity=".6" stroke-width="5" stroke-linecap="round" stroke-dasharray="1 11"/><path transform="translate(298 24) scale(.8)" d="M0 -10Q2 -2 10 0Q2 2 0 10Q-2 2 -10 0Q-2 -2 0 -10Z" fill="#fff" fill-opacity=".6"/><path transform="translate(30 158) scale(.7)" d="M0 -10Q2 -2 10 0Q2 2 0 10Q-2 2 -10 0Q-2 -2 0 -10Z" fill="#fff" fill-opacity=".6"/><ellipse cx="160" cy="156" rx="62" ry="7" fill="#0e2a47" fill-opacity=".12"/><g transform="translate(0 4)"><path d="M144 88V78a8 8 0 0 1 8-8h16a8 8 0 0 1 8 8v10" fill="none" stroke="#0e2a47" stroke-width="7" stroke-linecap="round"/><circle cx="130" cy="148" r="6" fill="#0e2a47"/><circle cx="190" cy="148" r="6" fill="#0e2a47"/><rect x="112" y="86" width="96" height="60" rx="12" fill="#0e2a47"/><rect x="132" y="86" width="11" height="60" fill="#f5c518"/><rect x="177" y="86" width="11" height="60" fill="#f5c518"/></g><g transform="translate(152 44) rotate(-18) scale(.92)"><path d="M-48 -6l-10-22h12l18 22z" fill="#ef6f5e"/><path d="M-4 -6l-12-20h9l20 20z" fill="#24486e"/><rect x="-56" y="-9" width="112" height="18" rx="9" fill="#fff"/><path d="M36 -9h11a9 9 0 0 1 0 18h-11z" fill="#0e2a47"/><path d="M-2 4L-20 18h12L22 4z" fill="#0e2a47"/></g></svg>
